<svg xmlns="http://www.w3.org/2000/svg" width="480" height="150">
  <rect x="0" y="0" width="120" height="30" fill="#4a90d9" stroke="#999"/>
  <text x="8" y="22" font-size="12" fill="white">Region</text>
  <rect x="120" y="0" width="120" height="30" fill="#4a90d9" stroke="#999"/>
  <text x="128" y="22" font-size="12" fill="white">Product</text>
  <rect x="240" y="0" width="120" height="30" fill="#4a90d9" stroke="#999"/>
  <text x="248" y="22" font-size="12" fill="white">Units Sold</text>
  <rect x="360" y="0" width="120" height="30" fill="#4a90d9" stroke="#999"/>
  <text x="368" y="22" font-size="12" fill="white">Revenue</text>
  <rect x="0" y="30" width="120" height="30" fill="#ffffff" stroke="#999"/>
  <text x="8" y="52" font-size="12" fill="black">North</text>
  <rect x="120" y="30" width="120" height="30" fill="#ffffff" stroke="#999"/>
  <text x="128" y="52" font-size="12" fill="black">Widget A</text>
  <rect x="240" y="30" width="120" height="30" fill="#ffffff" stroke="#999"/>
  <text x="248" y="52" font-size="12" fill="black">120</text>
  <rect x="360" y="30" width="120" height="30" fill="#ffffff" stroke="#999"/>
  <text x="368" y="52" font-size="12" fill="black">$2,400</text>
  <rect x="0" y="60" width="120" height="30" fill="#f0f0f0" stroke="#999"/>
  <text x="8" y="82" font-size="12" fill="black">South</text>
  <rect x="120" y="60" width="120" height="30" fill="#f0f0f0" stroke="#999"/>
  <text x="128" y="82" font-size="12" fill="black">Widget B</text>
  <rect x="240" y="60" width="120" height="30" fill="#f0f0f0" stroke="#999"/>
  <text x="248" y="82" font-size="12" fill="black">95</text>
  <rect x="360" y="60" width="120" height="30" fill="#f0f0f0" stroke="#999"/>
  <text x="368" y="82" font-size="12" fill="black">$1,900</text>
  <rect x="0" y="90" width="120" height="30" fill="#ffffff" stroke="#999"/>
  <text x="8" y="112" font-size="12" fill="black">East</text>
  <rect x="120" y="90" width="120" height="30" fill="#ffffff" stroke="#999"/>
  <text x="128" y="112" font-size="12" fill="black">Widget C</text>
  <rect x="240" y="90" width="120" height="30" fill="#ffffff" stroke="#999"/>
  <text x="248" y="112" font-size="12" fill="black">200</text>
  <rect x="360" y="90" width="120" height="30" fill="#ffffff" stroke="#999"/>
  <text x="368" y="112" font-size="12" fill="black">$6,000</text>
  <rect x="0" y="120" width="120" height="30" fill="#f0f0f0" stroke="#999"/>
  <text x="8" y="142" font-size="12" fill="black">West</text>
  <rect x="120" y="120" width="120" height="30" fill="#f0f0f0" stroke="#999"/>
  <text x="128" y="142" font-size="12" fill="black">Widget A</text>
  <rect x="240" y="120" width="120" height="30" fill="#f0f0f0" stroke="#999"/>
  <text x="248" y="142" font-size="12" fill="black">80</text>
  <rect x="360" y="120" width="120" height="30" fill="#f0f0f0" stroke="#999"/>
  <text x="368" y="142" font-size="12" fill="black">$1,600</text>
</svg>